<?xml version="1.0" standalone="no"?>
<!DOCTYPE svg PUBLIC "-//W3C//DTD SVG 20010904//EN"
 "http://www.w3.org/TR/2001/REC-SVG-20010904/DTD/svg10.dtd">
<svg version="1.0" xmlns="http://www.w3.org/2000/svg"
 width="75.000000pt" height="75.000000pt" viewBox="0 0 612.000000 296.000000"
 preserveAspectRatio="xMidYMid meet">

<g transform="translate(0.000000,296.000000) scale(0.100000,-0.100000)"
fill="#000000" stroke="none">
<path d="M1083 2182 c-100 -35 -171 -114 -193 -216 -8 -35 -10 -203 -8 -526 3
-458 4 -477 24 -521 31 -66 78 -114 142 -146 l57 -28 1980 0 1980 0 42 23 c66
35 110 79 140 140 l28 57 0 505 0 505 -28 57 c-32 64 -80 111 -146 142 l-46
21 -1960 2 c-1861 2 -1963 2 -2012 -15z m964 -444 c35 -39 183 -304 183 -328
0 -23 -85 -190 -103 -202 -6 -3 -16 -4 -23 -1 -12 4 -282 473 -297 514 -11 31
14 39 118 39 93 0 103 -2 122 -22z m397 16 c9 -3 16 -12 16 -19 0 -16 -97
-180 -115 -195 -22 -18 -38 -2 -92 85 -50 81 -62 113 -46 128 8 9 216 9 237 1z
m988 -11 c20 -18 23 -45 8 -74 -8 -15 -22 -19 -60 -19 l-50 0 0 -46 c0 -32 -4
-44 -12 -42 -9 3 -14 35 -16 101 l-3 97 57 0 c39 0 63 -5 76 -17z m878 -81 l0
-98 -49 -2 c-55 -2 -69 9 -77 60 -8 48 28 92 67 84 27 -5 29 -3 29 24 0 20 5
30 15 30 12 0 15 -18 15 -98z m120 61 c0 -29 3 -34 12 -25 34 34 88 -2 88 -57
0 -58 -22 -81 -75 -79 l-45 2 0 98 c0 59 4 98 10 98 6 0 10 -17 10 -37z
m-2788 10 c29 -34 98 -165 98 -185 0 -35 -191 -358 -214 -364 -12 -3 -66 -4
-121 -2 -84 3 -100 6 -103 20 -2 9 61 128 139 265 136 239 164 283 179 283 4
0 14 -8 22 -17z m1032 -76 c27 -48 48 -98 48 -110 0 -25 -153 -309 -185 -345
-20 -21 -28 -22 -127 -20 -96 3 -105 5 -108 23 -3 21 269 523 291 537 21 14
31 3 81 -85z m903 31 c57 -53 5 -143 -71 -124 -43 11 -53 98 -15 128 29 24 58
23 86 -4z m65 -19 c16 -63 21 -65 33 -14 7 31 16 50 25 50 9 0 20 -21 29 -50
l15 -50 14 53 c14 48 32 70 32 39 0 -22 -31 -121 -41 -132 -13 -13 -26 9 -35
58 -7 45 -15 41 -29 -16 -16 -61 -35 -53 -57 23 -21 77 -22 83 -6 78 7 -3 16
-20 20 -39z m270 24 c9 -10 19 -28 22 -40 7 -22 5 -23 -48 -23 -60 0 -61 -1
-46 -31 13 -23 43 -25 60 -4 14 17 30 20 30 6 0 -19 -32 -41 -59 -41 -60 0
-86 85 -41 130 25 25 62 26 82 3z m68 7 c0 -7 6 -7 19 0 26 13 31 13 31 -4 0
-7 -9 -16 -19 -19 -16 -4 -20 -15 -23 -58 -2 -31 -8 -54 -15 -57 -10 -3 -13
16 -13 72 0 44 4 76 10 76 6 0 10 -5 10 -10z m162 -3 c9 -7 20 -25 23 -40 7
-27 6 -27 -42 -27 -57 0 -66 -5 -52 -31 12 -23 55 -25 67 -3 5 9 15 15 22 12
22 -7 -26 -48 -57 -48 -39 0 -63 27 -63 72 0 63 56 99 102 65z m446 -44 l19
-58 17 52 c17 50 31 71 42 60 4 -4 -59 -184 -68 -192 -2 -2 -12 -5 -22 -7 -26
-4 -32 18 -6 25 11 3 20 12 20 19 0 13 -25 92 -45 141 -5 12 -2 17 8 17 10 0
22 -21 35 -57z m-1226 -323 c21 -58 40 -113 43 -122 5 -15 0 -18 -24 -18 -24
0 -32 5 -37 25 -6 22 -11 25 -55 25 -44 0 -49 -3 -55 -25 -5 -20 -13 -25 -36
-25 -25 0 -29 3 -23 18 4 9 20 55 37 101 50 143 44 133 80 129 32 -3 34 -6 70
-108z m498 -15 l0 -125 -30 0 -30 0 0 125 0 125 30 0 30 0 0 -125z m680 85 c0
-37 2 -40 19 -30 29 15 62 12 83 -7 14 -13 18 -31 18 -95 0 -76 -1 -78 -25
-78 -23 0 -24 3 -27 72 -3 63 -6 73 -22 76 -30 6 -46 -26 -46 -90 0 -55 -1
-58 -25 -58 l-25 0 0 125 0 125 25 0 c23 0 25 -4 25 -40z m-2637 -88 c77 -132
76 -132 -84 -132 -148 0 -150 2 -78 126 62 108 68 116 88 112 8 -2 42 -49 74
-106z m954 70 c49 -68 97 -167 90 -185 -6 -16 -21 -17 -129 -15 -109 3 -123 5
-126 21 -4 18 91 196 112 209 19 13 25 9 53 -30z m618 -67 c10 -36 21 -63 24
-59 3 3 13 31 22 62 14 50 19 57 44 60 20 3 26 0 23 -10 -3 -7 -18 -50 -34
-96 -28 -80 -30 -83 -58 -80 -26 3 -31 10 -57 78 -35 95 -36 110 -5 110 21 0
26 -8 41 -65z m275 45 c17 -17 20 -33 20 -96 l0 -77 -35 6 c-19 3 -37 1 -40
-4 -10 -15 -57 -10 -77 8 -39 35 -7 103 50 103 34 0 57 14 48 29 -10 16 -53
13 -60 -4 -8 -23 -46 -19 -46 4 0 48 101 70 140 31z m277 5 c18 -13 22 -27 25
-95 l3 -80 -35 1 c-19 0 -49 -3 -67 -6 -24 -6 -36 -2 -52 14 -12 12 -21 27
-21 35 0 27 36 59 76 65 25 4 39 12 39 21 0 21 -39 24 -55 5 -16 -19 -50 -20
-50 0 0 47 90 73 137 40z m108 5 c4 -7 12 -7 25 0 28 15 61 12 82 -7 14 -13
18 -31 18 -95 0 -77 0 -78 -25 -78 -24 0 -25 3 -25 59 0 71 -6 91 -29 91 -30
0 -41 -22 -41 -87 0 -61 -1 -63 -25 -63 -25 0 -25 0 -25 95 0 87 2 95 19 95
11 0 23 -5 26 -10z m303 -6 c30 -21 29 -54 -2 -54 -13 0 -27 7 -30 16 -10 25
-49 13 -60 -18 -21 -60 36 -120 64 -69 14 27 50 28 50 2 0 -49 -96 -79 -139
-43 -24 19 -37 77 -27 116 15 59 92 86 144 50z m406 -15 c14 -17 26 -41 26
-55 0 -23 -3 -24 -66 -24 -55 0 -65 -3 -62 -16 5 -28 35 -41 58 -26 23 14 60
16 60 3 0 -30 -62 -58 -105 -47 -66 17 -90 116 -40 170 36 39 94 37 129 -5z"/>
<path d="M3330 1704 l0 -35 43 3 c36 3 43 7 45 27 4 29 -12 41 -55 41 -31 0
-33 -2 -33 -36z"/>
<path d="M4222 1678 c-17 -17 -15 -73 3 -88 39 -32 81 29 51 75 -18 27 -36 31
-54 13z"/>
<path d="M4448 1679 c-21 -12 -24 -69 -6 -87 35 -35 81 13 62 66 -10 30 -30
37 -56 21z"/>
<path d="M3498 1665 c-23 -51 20 -106 57 -75 18 15 20 71 3 88 -20 20 -48 14
-60 -13z"/>
<path d="M3844 1673 c-17 -17 -16 -18 20 -21 45 -4 54 2 36 23 -16 20 -35 19
-56 -2z"/>
<path d="M4082 1678 c-20 -20 -14 -28 23 -28 19 0 35 4 35 8 0 12 -22 32 -35
32 -6 0 -16 -5 -23 -12z"/>
<path d="M3272 1331 c-16 -52 -16 -51 18 -51 17 0 30 3 30 6 0 17 -24 84 -30
84 -4 0 -12 -17 -18 -39z"/>
<path d="M3663 1263 c-7 -2 -13 -13 -13 -24 0 -22 38 -27 58 -7 28 28 -2 49
-45 31z"/>
<path d="M3940 1255 c-17 -21 -1 -38 31 -33 16 2 25 11 27 26 3 18 -1 22 -21
22 -14 0 -30 -7 -37 -15z"/>
<path d="M4752 1328 c-21 -21 -13 -28 28 -28 38 0 40 2 30 20 -12 22 -40 26
-58 8z"/>
</g>
</svg>
